<svg xmlns="http://www.w3.org/2000/svg" viewBox="0 0 900 560" role="img" aria-label="OmniOps mod³l halkalar1">
  <rect width="900" height="560" fill="#f8fafc"/>
  <text x="450" y="36" fill="#0f172a" font-family="Segoe UI, Arial, sans-serif" font-size="26" font-weight="700" text-anchor="middle">OmniOps Mod³l Ekosistemi</text>
  <circle cx="450" cy="300" r="210" fill="none" stroke="#cbd5e1" stroke-width="2" stroke-dasharray="8 6"/>
  <circle cx="450" cy="300" r="150" fill="none" stroke="#94a3b8" stroke-width="2" stroke-dasharray="8 6"/>
  <circle cx="450" cy="300" r="90" fill="#7c3aed" opacity="0.12"/>
  <circle cx="450" cy="300" r="90" fill="none" stroke="#7c3aed" stroke-width="3"/>
  <text x="450" y="295" fill="#5b21b6" font-family="Segoe UI, Arial, sans-serif" font-size="18" font-weight="700" text-anchor="middle">Komuta</text>
  <text x="450" y="318" fill="#5b21b6" font-family="Segoe UI, Arial, sans-serif" font-size="14" text-anchor="middle">Dashboard Ę KPI</text>
  <g font-family="Segoe UI, Arial, sans-serif" font-size="14" font-weight="600">
    <rect x="355" y="70" width="190" height="42" rx="10" fill="#dbeafe" stroke="#2563eb"/><text x="450" y="97" fill="#1d4ed8" text-anchor="middle">Servis Masas1 (ITSM)</text>
    <rect x="680" y="170" width="170" height="42" rx="10" fill="#dcfce7" stroke="#16a34a"/><text x="765" y="197" fill="#15803d" text-anchor="middle">Fabrika &amp; Envanter</text>
    <rect x="680" y="390" width="170" height="42" rx="10" fill="#ffedd5" stroke="#ea580c"/><text x="765" y="417" fill="#c2410c" text-anchor="middle">A &amp; Altyap1</text>
    <rect x="50" y="390" width="170" height="42" rx="10" fill="#fce7f3" stroke="#db2777"/><text x="135" y="417" fill="#be185d" text-anchor="middle">Kimlik &amp; G³venlik</text>
    <rect x="50" y="170" width="170" height="42" rx="10" fill="#ede9fe" stroke="#7c3aed"/><text x="135" y="197" fill="#6d28d9" text-anchor="middle">Entegrasyon Hub</text>
    <rect x="355" y="488" width="190" height="42" rx="10" fill="#e0f2fe" stroke="#0284c7"/><text x="450" y="515" fill="#0369a1" text-anchor="middle">Raporlama &amp; Y÷neti_im</text>
  </g>
</svg>
